<svg id="Layer_1" height="512" viewBox="0 0 24 24" width="512" xmlns="http://www.w3.org/2000/svg" data-name="Layer 1">
  <path d="m5 11.5a1.5 1.5 0 0 1 1.5-1.5h11a1.5 1.5 0 0 1 0 3h-11a1.5 1.5 0 0 1 -1.5-1.5z" fill="red" />
  <path d="m7.5 18a1.5 1.5 0 0 0 0-3h-7a1.5 1.5 0 0 0 0 3z" fill="red" />
  <path d="m22 8v11a5.506 5.506 0 0 1 -5.5 5.5h-13a5.506 5.506 0 0 1 -5.5-5.5v-11a5.506 5.506 0 0 1 5.5-5.5h13a5.506 5.506 0 0 1 5.5 5.5z" fill="white" />
  <path d="m6 5.5a1.5 1.5 0 1 0 1.5-1.5 1.5 1.5 0 0 0 -1.5 1.5z" fill="#66D9EF" />
  <path d="m1 5.5a1.5 1.5 0 1 0 1.5-1.5 1.5 1.5 0 0 0 -1.5 1.5z" fill="#66D9EF" />
  <path d="m23 9.5h-18v9.5a2.5 2.5 0 0 0 2.5 2.5h13a2.5 2.5 0 0 0 2.5-2.5z" fill="#131842" />
</svg>
