<svg width="25" height="25" viewBox="0 0 25 25" fill="none" xmlns="http://www.w3.org/2000/svg">
<path fill-rule="evenodd" clip-rule="evenodd" d="M9.37502 6.0335C9.37502 5.57786 9.74439 5.2085 10.2 5.2085L21.05 5.2085C21.5057 5.2085 21.875 5.57786 21.875 6.0335V7.5085C21.875 7.96413 21.5057 8.3335 21.05 8.3335L10.2 8.3335C9.74439 8.3335 9.37502 7.96413 9.37502 7.5085V6.0335ZM9.375 11.2417C9.375 10.7861 9.74437 10.4167 10.2 10.4167L21.05 10.4167C21.5056 10.4167 21.875 10.7861 21.875 11.2417V12.7167C21.875 13.1723 21.5056 13.5417 21.05 13.5417L10.2 13.5417C9.74436 13.5417 9.375 13.1723 9.375 12.7167L9.375 11.2417ZM10.2 15.625C9.74437 15.625 9.375 15.9944 9.375 16.45V17.925C9.375 18.3807 9.74436 18.75 10.2 18.75H21.05C21.5056 18.75 21.875 18.3807 21.875 17.925V16.45C21.875 15.9944 21.5056 15.625 21.05 15.625L10.2 15.625Z" fill="currentColor"/>
<path opacity="0.3" fill-rule="evenodd" clip-rule="evenodd" d="M5.7293 8.3335C6.59225 8.3335 7.2918 7.63394 7.2918 6.771C7.2918 5.90805 6.59225 5.2085 5.7293 5.2085C4.86636 5.2085 4.1668 5.90805 4.1668 6.771C4.1668 7.63394 4.86636 8.3335 5.7293 8.3335ZM5.72925 13.5417C6.59219 13.5417 7.29175 12.8421 7.29175 11.9792C7.29175 11.1163 6.59219 10.4167 5.72925 10.4167C4.8663 10.4167 4.16675 11.1163 4.16675 11.9792C4.16675 12.8421 4.8663 13.5417 5.72925 13.5417ZM7.29175 17.1875C7.29175 18.0505 6.59219 18.75 5.72925 18.75C4.8663 18.75 4.16675 18.0505 4.16675 17.1875C4.16675 16.3246 4.8663 15.625 5.72925 15.625C6.59219 15.625 7.29175 16.3246 7.29175 17.1875Z" fill="currentColor"/>
</svg>
