<?xml version="1.0" standalone="no"?>
<svg version="1.0" xmlns="http://www.w3.org/2000/svg"
 width="512.000000pt" height="512.000000pt" viewBox="0 0 512.000000 512.000000"
 preserveAspectRatio="xMidYMid meet">

<g transform="translate(0.000000,512.000000) scale(0.100000,-0.100000)"
fill="aqua" stroke="none">
  <path d="M3859 5106 c-207 -60 -335 -260 -301 -469 17 -101 -5 -163 -71 -199
  -10 -5 -144 -29 -296 -53 -153 -23 -287 -48 -299 -54 -54 -29 -65 -117 -19
  -158 35 -31 30 -30 308 -73 145 -22 276 -45 290 -51 38 -15 78 -60 89 -99 6
  -22 6 -56 -1 -101 -23 -138 22 -271 125 -367 130 -123 299 -150 460 -74 104
  50 137 99 99 150 -28 38 -74 41 -121 8 -54 -37 -90 -48 -157 -49 -72 0 -118
  18 -175 69 -79 72 -89 112 -79 314 3 64 -1 83 -22 130 -54 116 -120 161 -275
  185 -171 27 -171 27 -44 46 144 23 192 41 251 96 81 76 107 170 85 314 -34
  230 233 386 418 244 82 -63 120 -170 96 -271 -24 -98 -11 -124 74 -148 70 -21
  127 -65 160 -126 51 -94 45 -200 -17 -282 -41 -54 -86 -84 -153 -104 -83 -24
  -89 -40 -60 -169 17 -77 33 -95 82 -95 45 0 76 40 72 93 -2 36 0 39 47 67 100
  58 163 135 195 236 58 189 -18 385 -187 484 l-60 35 5 42 c12 107 -44 248
  -130 329 -74 69 -160 105 -261 110 -50 2 -100 -2 -128 -10z"/>
</g>

<g transform="translate(0.000000,512.000000) scale(0.100000,-0.100000)"
fill="#3399ff" stroke="none">
  <path d="M1455 4826 c-40 -18 -90 -73 -104 -115 -7 -23 -11 -172 -11 -471 l0
  -437 -67 -39 c-83 -48 -254 -215 -310 -302 -23 -35 -54 -92 -69 -128 l-29 -63
  -72 -1 c-40 0 -95 -5 -122 -11 -140 -30 -223 -179 -177 -317 21 -62 95 -135
  155 -153 l41 -12 0 -1144 c0 -1080 -1 -1144 -18 -1149 -88 -29 -135 -68 -168
  -139 -55 -117 -7 -255 111 -318 l40 -22 1130 -3 c965 -2 1136 0 1172 12 143
  49 205 204 138 342 -29 58 -90 109 -145 120 l-30 7 0 1146 0 1147 55 23 c94
  39 147 119 147 222 0 99 -57 187 -147 225 -24 10 -79 19 -137 22 l-97 5 -39
  81 c-77 159 -197 294 -359 403 l-83 55 0 89 0 89 108 0 c131 0 177 17 219 81
  25 38 28 52 31 147 5 117 -5 165 -44 212 -41 48 -61 54 -189 60 l-120 5 -5
  110 c-6 140 -25 177 -107 219 -28 14 -76 16 -350 16 -244 -1 -325 -4 -348 -14z
  m653 -568 l2 -428 -310 0 -310 0 0 418 c0 315 3 421 12 430 9 9 86 12 308 10
  l295 -3 3 -427z m360 -6 c2 -53 -1 -89 -9 -98 -8 -10 -37 -14 -105 -14 l-94 0
  0 100 0 101 103 -3 102 -3 3 -83z m-249 -597 c64 -32 186 -131 234 -189 21
  -26 59 -79 83 -119 l45 -72 -772 -3 c-425 -1 -774 0 -777 2 -2 3 8 27 23 53
  73 125 187 243 302 312 l68 41 373 0 373 0 48 -25z m697 -550 c63 -26 76 -114
  23 -157 -20 -17 -89 -18 -1136 -18 l-1115 0 -29 29 c-46 47 -34 116 25 145 46
  23 2177 24 2232 1z m-1826 -550 c0 -212 1 -226 20 -245 30 -30 83 -27 109 6
  20 25 21 39 21 245 l0 219 445 0 446 0 -3 -280 -3 -280 -28 -27 c-38 -38 -96
  -38 -134 0 -26 25 -28 34 -33 144 -7 129 -17 159 -72 213 -47 48 -102 70 -176
  70 -101 0 -172 -44 -220 -135 l-27 -50 -3 -337 -4 -338 -30 -25 c-42 -35 -91
  -34 -129 4 l-29 29 0 155 c0 141 -2 157 -21 181 -26 33 -79 36 -109 6 -18 -18
  -20 -33 -20 -181 0 -197 8 -227 75 -295 59 -59 116 -80 199 -71 91 9 160 60
  200 147 19 42 21 68 26 383 l5 339 24 19 c36 29 101 26 132 -7 22 -23 25 -37
  30 -137 4 -86 10 -121 26 -152 68 -131 217 -179 342 -110 58 32 103 89 121
  155 5 19 10 158 10 308 l0 272 245 0 245 0 0 -1145 0 -1145 -965 0 -965 0 0
  1145 0 1145 125 0 125 0 0 -225z m1851 -2243 c44 -39 44 -95 0 -134 l-31 -28
  -1111 0 -1111 0 -29 29 c-46 47 -38 115 19 145 23 13 176 15 1129 16 l1103 0
  31 -28z"/>
</g>

</svg>
